<svg width="100%" height="100%" viewBox="0 0 12 14" fill="none" xmlns="http://www.w3.org/2000/svg">
<path d="M8.02667 2.19284H11.0133V3.20618H10V12.2195L8.98667 13.1795H2L0.986667 12.2195V3.20618H0.0266666V2.19284H3.01333V1.17951C3.01333 0.930621 3.10222 0.717287 3.28 0.53951C3.49333 0.326177 3.74222 0.21951 4.02667 0.21951H7.01333C7.29778 0.21951 7.52889 0.326177 7.70667 0.53951C7.92 0.717287 8.02667 0.930621 8.02667 1.17951V2.19284ZM7.01333 1.17951H4.02667V2.19284H7.01333V1.17951ZM2 12.2195H8.98667V3.20618H2V12.2195ZM4.02667 4.21951H3.01333V11.2062H4.02667V4.21951ZM4.98667 4.21951H6V11.2062H4.98667V4.21951ZM7.01333 4.21951H8.02667V11.2062H7.01333V4.21951Z" fill="#8F8F8F"/>
</svg>
